<svg id="Layer_1" data-name="Layer 1" xmlns="http://www.w3.org/2000/svg" viewBox="0 0 411.04 234.75"><defs><style>.cls-1{fill:#fff;}</style></defs><title>OH!-Travel-Marketing-Logo</title><path class="cls-1" d="M206.93,119.55c0,57.05-24.45,81.5-81.5,81.5s-81.5-24.45-81.5-81.5S68.38,38,125.43,38,206.93,62.5,206.93,119.55Zm-46.26,0c0-33.92-10.57-48.46-35.25-48.46S90.19,85.63,90.19,119.55,100.76,168,125.43,168,160.67,153.47,160.67,119.55Z" transform="translate(-43.93 -38.05)"/><path class="cls-1" d="M365.55,42.45V196.64H321.49V130.56H273v66.08H229V48L273,42.45V97.52h48.46V48Z" transform="translate(-43.93 -38.05)"/><path class="cls-1" d="M436.06,178.14c0,14.54-6.61,20.92-22,20.92s-22-6.16-22-20.92S398.62,157,414,157,436.06,163.38,436.06,178.14ZM435,42.45V84.31l-8.81,55.07H401.92l-8.81-55.07V48Z" transform="translate(-43.93 -38.05)"/><path class="cls-1" d="M69.32,239v25.38H64.54V239H54.13v-4.3H79.77V239H69.32Z" transform="translate(-43.93 -38.05)"/><path class="cls-1" d="M97.8,242.33l-0.31,4.43a12.76,12.76,0,0,0-1.28,0,7.49,7.49,0,0,0-6.2,2.64,11.29,11.29,0,0,0-2.13,7.28v7.75H83.27v-22h4.61v4.69a9.34,9.34,0,0,1,8.37-5A5.41,5.41,0,0,1,97.8,242.33Z" transform="translate(-43.93 -38.05)"/><path class="cls-1" d="M123.84,264.38h-4.61v-2.52a10.53,10.53,0,0,1-8,3.15,10.42,10.42,0,0,1-7.69-3.26,12.4,12.4,0,0,1,0-16.67,10.4,10.4,0,0,1,7.66-3.28,10.53,10.53,0,0,1,8,3.15v-2.52h4.61v22Zm-6.78-5.56a7.87,7.87,0,0,0,0-10.85,7,7,0,0,0-5-2.1,6.92,6.92,0,0,0-5.14,2.06,8.36,8.36,0,0,0,0,10.94,6.92,6.92,0,0,0,5.14,2.06A7,7,0,0,0,117.07,258.83Z" transform="translate(-43.93 -38.05)"/><path class="cls-1" d="M143.2,264.38h-4.92l-9.43-22h5l6.91,16.52,6.91-16.52h5Z" transform="translate(-43.93 -38.05)"/><path class="cls-1" d="M177.43,254.51h-17.8a7.26,7.26,0,0,0,2.21,4.74,6.31,6.31,0,0,0,4.43,1.77,6.66,6.66,0,0,0,6.47-3.81l4.12,0.88a10.31,10.31,0,0,1-4.1,5.16,11.9,11.9,0,0,1-6.49,1.75,10.9,10.9,0,0,1-7.91-3.23,11.15,11.15,0,0,1-3.3-8.33,11.27,11.27,0,0,1,3.3-8.39,11.06,11.06,0,0,1,8.08-3.26,10.48,10.48,0,0,1,7.64,3.12,11.35,11.35,0,0,1,3.34,8v1.59Zm-15.23-7.22a6.11,6.11,0,0,0-2.44,3.94H172.7a6.65,6.65,0,0,0-2.21-4,6.17,6.17,0,0,0-4-1.37A7.07,7.07,0,0,0,162.2,247.29Z" transform="translate(-43.93 -38.05)"/><path class="cls-1" d="M183.42,264.38V232.5H188v31.89h-4.61Z" transform="translate(-43.93 -38.05)"/><path class="cls-1" d="M240.24,264.38h-4.6v-19l-10.19,19h-2.92l-10.19-19v19h-4.61V234.71h4.16L224,257.17l12.13-22.45h4.12v29.67Z" transform="translate(-43.93 -38.05)"/><path class="cls-1" d="M269.6,264.38H265v-2.52a10.53,10.53,0,0,1-8,3.15,10.42,10.42,0,0,1-7.69-3.26,12.4,12.4,0,0,1,0-16.67A10.41,10.41,0,0,1,257,241.8a10.53,10.53,0,0,1,8,3.15v-2.52h4.6v22Zm-6.78-5.56a7.86,7.86,0,0,0,0-10.85,7,7,0,0,0-5-2.1,6.93,6.93,0,0,0-5.14,2.06,8.36,8.36,0,0,0,0,10.94,6.93,6.93,0,0,0,5.14,2.06A7,7,0,0,0,262.83,258.83Z" transform="translate(-43.93 -38.05)"/><path class="cls-1" d="M292,242.33l-0.31,4.43a12.85,12.85,0,0,0-1.29,0,7.49,7.49,0,0,0-6.2,2.64,11.29,11.29,0,0,0-2.13,7.28v7.75h-4.6v-22h4.6v4.69a9.34,9.34,0,0,1,8.37-5A5.39,5.39,0,0,1,292,242.33Z" transform="translate(-43.93 -38.05)"/><path class="cls-1" d="M313.06,264.38l-10.14-9.12h-1.33v9.12H297V232.5h4.6v18.2H303l9.17-8.28H318L306.5,253l12.8,11.34h-6.25Z" transform="translate(-43.93 -38.05)"/><path class="cls-1" d="M343,254.51h-17.8a7.24,7.24,0,0,0,2.21,4.74,6.31,6.31,0,0,0,4.43,1.77,6.65,6.65,0,0,0,6.46-3.81l4.12,0.88a10.32,10.32,0,0,1-4.1,5.16,11.89,11.89,0,0,1-6.49,1.75,10.9,10.9,0,0,1-7.9-3.23,11.14,11.14,0,0,1-3.3-8.33,11.27,11.27,0,0,1,3.3-8.39,11.06,11.06,0,0,1,8.08-3.26,10.48,10.48,0,0,1,7.64,3.12,11.34,11.34,0,0,1,3.34,8v1.59Zm-15.23-7.22a6.1,6.1,0,0,0-2.44,3.94H338.3a6.62,6.62,0,0,0-2.21-4,6.18,6.18,0,0,0-4-1.37A7.06,7.06,0,0,0,327.81,247.29Z" transform="translate(-43.93 -38.05)"/><path class="cls-1" d="M363.64,263.32a10.7,10.7,0,0,1-5.45,1.68,8,8,0,0,1-5.8-2.06q-2.13-2.06-2.12-6V246.23h-4.74v-3.81h4.74V235.6h4.6v6.82h7.53v3.81h-7.53v10.36a4.28,4.28,0,0,0,1,3,3.45,3.45,0,0,0,2.66,1,6.67,6.67,0,0,0,3.72-1.2Z" transform="translate(-43.93 -38.05)"/><path class="cls-1" d="M373,233.78a2.78,2.78,0,0,1,.84,2,2.72,2.72,0,0,1-.82,2,2.9,2.9,0,0,1-2.1.8,3,3,0,0,1-2.13-.8,2.69,2.69,0,0,1-.84-2,2.77,2.77,0,0,1,.84-2,2.88,2.88,0,0,1,2.13-.84A2.82,2.82,0,0,1,373,233.78Zm-4.38,30.6v-22h4.61v22H368.6Z" transform="translate(-43.93 -38.05)"/><path class="cls-1" d="M400,244.39a9.39,9.39,0,0,1,2.44,6.71v13.29h-4.65V252a6.34,6.34,0,0,0-1.44-4.34,4.79,4.79,0,0,0-3.79-1.64,6,6,0,0,0-4.81,2.08q-1.75,2.08-1.75,6.11v10.14h-4.6v-22H386v2.7a9.42,9.42,0,0,1,7.62-3.32A8.34,8.34,0,0,1,400,244.39Z" transform="translate(-43.93 -38.05)"/><path class="cls-1" d="M430.65,262.44a9.68,9.68,0,0,1-3.08,7.62,12,12,0,0,1-8.3,2.75q-7.88,0-10.72-5.27l3.77-2.79a8.78,8.78,0,0,0,2.86,3,8,8,0,0,0,4.1.93,6.88,6.88,0,0,0,5-1.84,6.7,6.7,0,0,0,1.88-5v-1.42q-2.61,2.75-7.57,2.75a10.54,10.54,0,0,1-7.53-3.1,10.08,10.08,0,0,1-3.23-7.57,10,10,0,0,1,3.21-7.53,10.58,10.58,0,0,1,7.55-3.06q5,0,7.57,2.75v-2.17h4.47v20Zm-6.49-5.2a6.76,6.76,0,0,0,0-9.63,6.84,6.84,0,0,0-4.8-1.86,7.18,7.18,0,0,0-5,1.84,6.82,6.82,0,0,0,0,9.68,7.14,7.14,0,0,0,5,1.86A6.79,6.79,0,0,0,424.16,257.23Z" transform="translate(-43.93 -38.05)"/><path class="cls-1" d="M452.4,236.62a9.09,9.09,0,1,1-6.29-2.53A8.56,8.56,0,0,1,452.4,236.62Zm-1.08,11.65a7.38,7.38,0,1,0-5.21,2.13A7.12,7.12,0,0,0,451.31,248.26ZM447.7,244l2.7,2.92h-1.86L446,244.1h-1.55v2.79h-1.51v-8.28h3.72a3.73,3.73,0,0,1,2.41.73,2.39,2.39,0,0,1,.91,2A2.55,2.55,0,0,1,447.7,244Zm-1.06-1.2a2,2,0,0,0,1.28-.4,1.26,1.26,0,0,0,.49-1,1.2,1.2,0,0,0-.49-1,2,2,0,0,0-1.28-.38h-2.22v2.79h2.22Z" transform="translate(-43.93 -38.05)"/></svg>